<svg width="41" height="41" fill="none" xmlns="http://www.w3.org/2000/svg"><path d="M22.36 17.1c.57-.63 1.02-1.27 1.6-1.82 1.77-1.67 3.87-2.52 6.31-2.49 1.34.01 2.68.1 3.97.48 2.97.86 4.68 2.89 5.5 5.79.61 2.17.73 4.39.73 6.63.01 4.71-.01 9.42 0 14.13 0 .44-.12.55-.55.55-2.43-.01-4.86-.01-7.28 0-.42 0-.52-.13-.52-.54.01-4.48.01-8.97 0-13.45 0-1.12-.07-2.25-.39-3.34-.58-2.01-2.02-3.04-4.13-2.92-2.88.15-4.38 1.58-4.74 4.51-.09.7-.13 1.4-.13 2.11 0 4.36 0 8.72.01 13.09 0 .44-.1.57-.55.55-2.44-.01-4.89-.01-7.34 0-.39 0-.51-.1-.51-.49.01-8.64.01-17.27 0-25.9 0-.42.15-.52.54-.52 2.33.01 4.64.01 6.96 0 .42 0 .54.13.52.54-.01 1.03 0 2.06 0 3.09ZM9.06 26.98c0 4.27 0 8.55.01 12.81 0 .48-.12.62-.61.61-2.43-.03-4.86-.01-7.28 0-.39 0-.51-.09-.51-.49.01-8.65.01-17.3 0-25.94 0-.36.09-.48.47-.48 2.46.01 4.93.01 7.39 0 .48 0 .54.17.54.58-.03 4.3-.01 8.6-.01 12.91ZM9.72 4.91c0 2.68-2.18 4.87-4.86 4.87C2.21 9.78.02 7.6.02 4.95.01 2.27 2.2.08 4.88.08c2.65.01 4.84 2.18 4.84 4.83Z" fill="currentColor"/></svg>