<svg width="31" height="25" fill="none" xmlns="http://www.w3.org/2000/svg"><path d="M9.8 24.97c11.17 0 17.27-9.25 17.27-17.27 0-.26-.01-.53-.02-.79 1.19-.86 2.21-1.93 3.03-3.15-1.09.49-2.26.81-3.49.96a6.08 6.08 0 0 0 2.67-3.36c-1.17.69-2.47 1.2-3.86 1.47A6.077 6.077 0 0 0 20.97.91a6.073 6.073 0 0 0-5.91 7.45c-5.05-.25-9.52-2.67-12.51-6.34-.53.9-.82 1.94-.82 3.05 0 2.11 1.07 3.97 2.7 5.06-.99-.03-1.93-.3-2.75-.76v.08c0 2.94 2.09 5.4 4.87 5.95a6.12 6.12 0 0 1-2.74.1 6.064 6.064 0 0 0 5.67 4.22 12.186 12.186 0 0 1-8.99 2.51c2.69 1.74 5.88 2.74 9.31 2.74Z" fill="currentColor"/></svg>